USFL
nRows=105
nColumns=2
inDegrees=yes
endheader
time	soleus_r	
2.93448	 54.222589	
3.00605	 54.104136	
3.07762	 54.052779	
3.14919	 54.077443	
3.22077	 54.103299	
3.29234	 54.193268	
3.36391	 54.139081	
3.43548	 54.107879	
3.50706	 54.079327	
3.57863	 54.076419	
3.6502	 54.051569	
3.72177	 54.079732	
3.79335	 54.047079	
3.86492	 54.059860	
3.93649	 54.045675	
4.00806	 54.001939	
4.07964	 53.904046	
4.15121	 53.875064	
4.22278	 53.930047	
4.29435	 54.125521	
4.36593	 54.143348	
4.4375	 54.077162	
4.50907	 54.043551	
4.58065	 54.092134	
4.65222	 54.128064	
4.72379	 54.082357	
4.79536	 54.167639	
4.86694	 53.951002	
4.93851	 53.951401	
5.01008	 54.394808	
5.08165	 53.223777	
5.15323	 51.000935	
5.2248	 50.698930	
5.29637	 50.854424	
5.36794	 49.310002	
5.43952	 49.731086	
5.51109	 49.334578	
5.58266	 48.108439	
5.65423	 47.334082	
5.72581	 46.420037	
5.79738	 46.063579	
5.86895	 45.383819	
5.94052	 43.257557	
6.0121	 43.169538	
6.08367	 43.062444	
6.15524	 38.955272	
6.22681	 34.505905	
6.29839	 28.536105	
6.36996	 28.564189	
6.44153	 28.494905	
6.5131	 28.500424	
6.58468	 28.530684	
6.65625	 28.494549	
6.72782	 28.494314	
6.7994	 28.381421	
6.87097	 28.311723	
6.94254	 28.367196	
7.01411	 28.370276	
7.08569	 28.409626	
7.15726	 28.534326	
7.22883	 28.452482	
7.3004	 28.482982	
7.37198	 28.550878	
7.44355	 28.506373	
7.51512	 28.596960	
7.58669	 28.715938	
7.65827	 28.629174	
7.72984	 28.504354	
7.80141	 28.446326	
7.87298	 28.444442	
7.94456	 28.407975	
8.01613	 28.381173	
8.0877	 28.184864	
8.15927	 28.212651	
8.23085	 28.252877	
8.30242	 28.196286	
8.37399	 28.112916	
8.44556	 28.229345	
8.51714	 28.444680	
8.58871	 28.216803	
8.66028	 28.147504	
8.73185	 28.280500	
8.80343	 28.342086	
8.875	 28.142241	
8.94657	 28.423342	
9.01815	 28.337951	
9.08972	 28.140100	
9.16129	 28.295638	
9.23286	 28.172421	
9.30444	 28.181754	
9.37601	 28.182153	
9.44758	 28.278317	
9.51915	 28.367936	
9.59073	 28.235802	
9.6623	 28.065886	
9.73387	 27.989320	
9.80544	 27.839273	
9.87702	 27.809149	
9.94859	 27.797703	
10.0202	 27.811461	
10.0917	 27.919534	
10.1633	 27.913531	
10.2349	 27.598623	
10.3065	 33.215423	
10.378	 40.506782	
